<svg width="25" height="25" viewBox="0 0 25 25" fill="none" xmlns="http://www.w3.org/2000/svg">
<g clip-path="url(#clip0_0_39)">
<path d="M13.1102 9.02761C17.1112 10.0997 20.6443 9.8876 21.0017 8.55394C21.359 7.22027 18.4053 5.27004 14.4043 4.19798C10.4033 3.12592 6.87016 3.33799 6.5128 4.67165C6.15545 6.00532 9.1092 7.95554 13.1102 9.02761Z" stroke="#F8F8FA" stroke-width="1.66667" stroke-linecap="round" stroke-linejoin="round"/>
<path d="M19.4915 14.1887C19.1334 15.5249 15.6247 15.7408 11.6 14.6624C7.57527 13.5839 4.64453 11.6426 5.00256 10.3064" stroke="#F8F8FA" stroke-width="1.66667" stroke-linecap="round" stroke-linejoin="round"/>
<path d="M6.51233 4.67188L3.49277 15.941C3.13474 17.2772 6.06548 19.2186 10.0902 20.297C14.1149 21.3754 17.6236 21.1595 17.9817 19.8233L21.0012 8.55416" stroke="#F8F8FA" stroke-width="1.66667" stroke-linecap="round" stroke-linejoin="round"/>
</g>
<defs>
<clipPath id="clip0_0_39">
<rect width="20" height="20" fill="white" transform="translate(5.17639) rotate(15)"/>
</clipPath>
</defs>
</svg>
